<svg width="120" height="109" viewBox="0 0 120 109" fill="none" xmlns="http://www.w3.org/2000/svg">
<rect width="120" height="109" fill="#ADEED9" fill-opacity="0.7"/>
<path d="M46 37.0001H86V46.7445H81.5556V41.4445H50.4444V61.4445H60.0733V65.889H46V37.0001Z" fill="black"/>
<path d="M61.216 50.9547C62.7698 52.5991 64.0942 54 67.1111 54H70.6667C71.6097 54 72.5141 54.3746 73.1808 55.0414C73.8476 55.7082 74.2222 56.6126 74.2222 57.5556V59.3334C74.2222 59.9575 74.0579 60.5706 73.7459 61.1111C73.4338 61.6516 72.985 62.1004 72.4445 62.4125V71.7778H67.1111V57.5556C62.4587 57.5556 60.0782 54.9778 58.5067 53.28C58.2936 53.046 58.0761 52.816 57.8542 52.5902L60.368 50.0765C60.6631 50.3728 60.9458 50.6655 61.216 50.9547ZM72.4445 49.5556C72.4445 50.2628 72.1635 50.9411 71.6634 51.4412C71.1633 51.9413 70.485 52.2222 69.7778 52.2222C69.0706 52.2222 68.3923 51.9413 67.8922 51.4412C67.3921 50.9411 67.1111 50.2628 67.1111 49.5556C67.1111 48.8483 67.3921 48.1701 67.8922 47.67C68.3923 47.1699 69.0706 46.8889 69.7778 46.8889C70.485 46.8889 71.1633 47.1699 71.6634 47.67C72.1635 48.1701 72.4445 48.8483 72.4445 49.5556Z" fill="black"/>
<path d="M15.5451 94.1418C14.836 94.1418 14.1789 94.0142 13.5738 93.7589C12.9687 93.4942 12.444 93.1302 11.9996 92.6669C11.5647 92.1942 11.2244 91.6364 10.9785 90.9935C10.7327 90.3505 10.6098 89.6462 10.6098 88.8804C10.6098 88.1145 10.728 87.4149 10.9644 86.7815C11.2102 86.1385 11.5505 85.5855 11.9855 85.1222C12.4298 84.6495 12.9545 84.2855 13.5596 84.0302C14.1647 83.7749 14.8218 83.6473 15.5309 83.6473C16.3251 83.6473 17.0389 83.808 17.6724 84.1295C18.3058 84.4415 18.8211 84.8858 19.2182 85.4625C19.6247 86.0393 19.8753 86.7105 19.9698 87.4764H18.4949C18.372 86.6727 18.0458 86.0487 17.5164 85.6044C16.9964 85.1505 16.3393 84.9236 15.5451 84.9236C14.8738 84.9236 14.2782 85.0891 13.7582 85.42C13.2476 85.7415 12.8505 86.2 12.5669 86.7956C12.2833 87.3818 12.1415 88.0767 12.1415 88.8804C12.1415 89.6745 12.2833 90.3742 12.5669 90.9793C12.86 91.5749 13.2618 92.0382 13.7724 92.3691C14.2829 92.7 14.8738 92.8655 15.5451 92.8655C16.3393 92.8655 17.0011 92.6433 17.5305 92.1989C18.0695 91.7451 18.3956 91.1164 18.5091 90.3127H19.9982C19.8942 91.088 19.6389 91.764 19.2324 92.3407C18.8258 92.908 18.3058 93.3524 17.6724 93.6738C17.0484 93.9858 16.3393 94.1418 15.5451 94.1418ZM21.5885 94V83.7891H23.0634V94H21.5885ZM29.6155 94C29.5682 93.8204 29.5351 93.6218 29.5162 93.4044C29.5067 93.1869 29.502 92.9222 29.502 92.6102H29.4311V89.164C29.4311 88.7007 29.3129 88.3556 29.0765 88.1287C28.8496 87.8924 28.4856 87.7742 27.9845 87.7742C27.5024 87.7742 27.1147 87.8687 26.8216 88.0578C26.538 88.2469 26.3725 88.5164 26.3253 88.8662H24.9213C24.9874 88.1855 25.2947 87.6418 25.8431 87.2353C26.3914 86.8287 27.1242 86.6255 28.0413 86.6255C28.9867 86.6255 29.6958 86.8476 30.1685 87.292C30.6413 87.7269 30.8776 88.3698 30.8776 89.2207V92.6102C30.8776 92.8276 30.8918 93.0498 30.9202 93.2767C30.9485 93.5036 30.9911 93.7447 31.0478 94H29.6155ZM27.1195 94.1418C26.382 94.1418 25.7958 93.9622 25.3609 93.6029C24.926 93.2342 24.7085 92.7378 24.7085 92.1138C24.7085 91.4709 24.9354 90.9651 25.3893 90.5964C25.8525 90.2182 26.5144 89.9629 27.3747 89.8305L29.7573 89.4476V90.4829L27.6016 90.8233C27.1195 90.8989 26.7554 91.0265 26.5096 91.2062C26.2733 91.3858 26.1551 91.6458 26.1551 91.9862C26.1551 92.3171 26.2638 92.5676 26.4813 92.7378C26.7082 92.8985 27.0344 92.9789 27.4598 92.9789C28.0271 92.9789 28.4951 92.8418 28.8638 92.5676C29.242 92.2935 29.4311 91.9484 29.4311 91.5324L29.6155 92.5818C29.4453 93.0829 29.1427 93.4705 28.7078 93.7447C28.2729 94.0095 27.7435 94.1418 27.1195 94.1418ZM35.4022 94.1418C34.4567 94.1418 33.7051 93.9338 33.1473 93.5178C32.5895 93.1018 32.2727 92.5156 32.1971 91.7593H33.5585C33.6247 92.1753 33.8138 92.4967 34.1258 92.7236C34.4473 92.9411 34.8822 93.0498 35.4305 93.0498C35.9127 93.0498 36.2815 92.9647 36.5367 92.7945C36.792 92.6244 36.9196 92.3833 36.9196 92.0713C36.9196 91.8444 36.844 91.6553 36.6927 91.504C36.5509 91.3433 36.2673 91.2109 35.8418 91.1069L34.6789 90.8375C33.9509 90.6578 33.4073 90.3931 33.048 90.0433C32.6982 89.684 32.5233 89.2444 32.5233 88.7244C32.5233 88.072 32.7644 87.5615 33.2465 87.1927C33.7382 86.8145 34.4095 86.6255 35.2604 86.6255C36.1018 86.6255 36.7778 86.8145 37.2884 87.1927C37.8084 87.5709 38.1015 88.1004 38.1676 88.7811H36.8062C36.7495 88.4407 36.584 88.1807 36.3098 88.0011C36.0451 87.812 35.6811 87.7175 35.2178 87.7175C34.7829 87.7175 34.4473 87.7978 34.2109 87.9585C33.984 88.1098 33.8705 88.3225 33.8705 88.5967C33.8705 88.8236 33.9556 89.0127 34.1258 89.164C34.3055 89.3153 34.5985 89.4429 35.0051 89.5469L36.1964 89.8447C36.8865 90.0149 37.4065 90.2938 37.7564 90.6815C38.1062 91.0596 38.2811 91.5182 38.2811 92.0571C38.2811 92.7095 38.0258 93.22 37.5153 93.5887C37.0142 93.9575 36.3098 94.1418 35.4022 94.1418ZM42.3823 94.1418C41.4368 94.1418 40.6852 93.9338 40.1274 93.5178C39.5696 93.1018 39.2528 92.5156 39.1772 91.7593H40.5387C40.6048 92.1753 40.7939 92.4967 41.1059 92.7236C41.4274 92.9411 41.8623 93.0498 42.4107 93.0498C42.8928 93.0498 43.2616 92.9647 43.5168 92.7945C43.7721 92.6244 43.8998 92.3833 43.8998 92.0713C43.8998 91.8444 43.8241 91.6553 43.6728 91.504C43.531 91.3433 43.2474 91.2109 42.8219 91.1069L41.659 90.8375C40.931 90.6578 40.3874 90.3931 40.0281 90.0433C39.6783 89.684 39.5034 89.2444 39.5034 88.7244C39.5034 88.072 39.7445 87.5615 40.2267 87.1927C40.7183 86.8145 41.3896 86.6255 42.2405 86.6255C43.0819 86.6255 43.7579 86.8145 44.2685 87.1927C44.7885 87.5709 45.0816 88.1004 45.1478 88.7811H43.7863C43.7296 88.4407 43.5641 88.1807 43.2899 88.0011C43.0252 87.812 42.6612 87.7175 42.1979 87.7175C41.763 87.7175 41.4274 87.7978 41.191 87.9585C40.9641 88.1098 40.8507 88.3225 40.8507 88.5967C40.8507 88.8236 40.9358 89.0127 41.1059 89.164C41.2856 89.3153 41.5787 89.4429 41.9852 89.5469L43.1765 89.8447C43.8667 90.0149 44.3867 90.2938 44.7365 90.6815C45.0863 91.0596 45.2612 91.5182 45.2612 92.0571C45.2612 92.7095 45.0059 93.22 44.4954 93.5887C43.9943 93.9575 43.2899 94.1418 42.3823 94.1418ZM53.1415 94.1276C51.9124 94.1276 50.9292 93.8345 50.1917 93.2484C49.4543 92.6622 49.0241 91.8255 48.9012 90.7382H50.3619C50.447 91.4473 50.7306 91.9862 51.2128 92.3549C51.695 92.7236 52.3474 92.908 53.1699 92.908C53.8601 92.908 54.3801 92.7804 54.7299 92.5251C55.0892 92.2698 55.2688 91.9058 55.2688 91.4331C55.2688 91.0076 55.1506 90.672 54.9143 90.4262C54.6779 90.1709 54.3044 89.9629 53.7939 89.8022L52.0212 89.2349C51.1135 88.9418 50.447 88.5731 50.0215 88.1287C49.5961 87.6844 49.3834 87.1218 49.3834 86.4411C49.3834 85.8644 49.5252 85.368 49.8088 84.952C50.1019 84.536 50.5084 84.2145 51.0284 83.9876C51.5579 83.7513 52.1724 83.6331 52.8721 83.6331C53.9499 83.6331 54.8103 83.9073 55.4532 84.4556C56.1055 84.9945 56.479 85.7462 56.5735 86.7105H55.1128C54.9994 86.0676 54.7535 85.5996 54.3754 85.3065C53.9972 85.004 53.4772 84.8527 52.8154 84.8527C52.1914 84.8527 51.7044 84.9756 51.3546 85.2215C51.0048 85.4673 50.8299 85.8124 50.8299 86.2567C50.8299 86.616 50.9434 86.9185 51.1703 87.1644C51.4066 87.4007 51.7943 87.604 52.3332 87.7742L54.191 88.3698C55.0514 88.644 55.6848 89.0175 56.0914 89.4902C56.5074 89.9629 56.7154 90.5585 56.7154 91.2771C56.7154 92.1847 56.4034 92.8891 55.7794 93.3902C55.1554 93.8818 54.2761 94.1276 53.1415 94.1276ZM61.2407 94.1418C60.5505 94.1418 59.936 93.9811 59.397 93.6596C58.8581 93.3287 58.4327 92.8796 58.1207 92.3124C57.8181 91.7451 57.6669 91.0975 57.6669 90.3695C57.6669 89.6415 57.8181 88.9985 58.1207 88.4407C58.4327 87.8735 58.8581 87.4291 59.397 87.1076C59.936 86.7862 60.5458 86.6255 61.2265 86.6255C61.8032 86.6255 62.3185 86.7342 62.7723 86.9516C63.2261 87.1691 63.5996 87.4716 63.8927 87.8593C64.1858 88.2469 64.3749 88.7055 64.46 89.2349H63.0701C62.9756 88.8095 62.7676 88.4691 62.4461 88.2138C62.1341 87.9585 61.7371 87.8309 61.2549 87.8309C60.8389 87.8309 60.4749 87.9349 60.1629 88.1429C59.8509 88.3509 59.6098 88.644 59.4396 89.0222C59.2694 89.4004 59.1843 89.8495 59.1843 90.3695C59.1843 90.88 59.2694 91.3291 59.4396 91.7167C59.6098 92.1044 59.8509 92.4069 60.1629 92.6244C60.4749 92.8324 60.8436 92.9364 61.269 92.9364C61.7323 92.9364 62.1247 92.8135 62.4461 92.5676C62.7771 92.3124 62.9898 91.972 63.0843 91.5465H64.4741C64.3796 92.0665 64.1811 92.5204 63.8785 92.908C63.5854 93.2956 63.212 93.5982 62.7581 93.8156C62.3043 94.0331 61.7985 94.1418 61.2407 94.1418ZM65.9344 94V83.7891H67.4093V94H65.9344ZM71.0682 94V89.3484C71.0682 88.8473 70.9406 88.4738 70.6853 88.228C70.4395 87.9822 70.0708 87.8593 69.5792 87.8593C69.1537 87.8593 68.7755 87.9538 68.4446 88.1429C68.1232 88.332 67.8679 88.592 67.6788 88.9229C67.4992 89.2538 67.4093 89.6462 67.4093 90.1L67.225 88.3698C67.4613 87.8309 67.8253 87.4055 68.317 87.0935C68.8086 86.7815 69.3806 86.6255 70.033 86.6255C70.8082 86.6255 71.4181 86.8429 71.8624 87.2778C72.3068 87.7127 72.529 88.2895 72.529 89.008V94H71.0682ZM77.6549 94.1418C76.9269 94.1418 76.284 93.9811 75.7262 93.6596C75.1778 93.3382 74.7476 92.8938 74.4356 92.3265C74.1236 91.7593 73.9676 91.1069 73.9676 90.3695C73.9676 89.6225 74.1189 88.9702 74.4215 88.4124C74.7335 87.8451 75.1684 87.4055 75.7262 87.0935C76.284 86.7815 76.9222 86.6255 77.6407 86.6255C78.3404 86.6255 78.9455 86.7767 79.456 87.0793C79.976 87.3724 80.3731 87.7836 80.6473 88.3131C80.9309 88.8425 81.0727 89.4713 81.0727 90.1993C81.0727 90.3127 81.068 90.4215 81.0586 90.5255C81.0586 90.62 81.0491 90.7193 81.0302 90.8233H74.9604V89.7171H79.9949L79.6262 90.1567C79.6262 89.3815 79.4513 88.7905 79.1015 88.384C78.7516 87.9775 78.2647 87.7742 77.6407 87.7742C76.9695 87.7742 76.4353 88.0058 76.0382 88.4691C75.6506 88.9229 75.4567 89.5564 75.4567 90.3695C75.4567 91.192 75.6506 91.8349 76.0382 92.2982C76.4353 92.7615 76.9836 92.9931 77.6833 92.9931C78.1087 92.9931 78.4775 92.908 78.7895 92.7378C79.1015 92.5582 79.3331 92.2982 79.4844 91.9578H80.8742C80.6378 92.6385 80.236 93.1727 79.6687 93.5604C79.1109 93.948 78.4396 94.1418 77.6549 94.1418ZM87.8419 94V92.3407L87.9837 92.3833C87.8324 92.9222 87.5204 93.3524 87.0477 93.6738C86.575 93.9858 86.0077 94.1418 85.3459 94.1418C84.6935 94.1418 84.1215 93.9858 83.6299 93.6738C83.1477 93.3618 82.7695 92.9269 82.4954 92.3691C82.2306 91.8113 82.0983 91.1589 82.0983 90.412C82.0983 89.6556 82.2354 88.9938 82.5095 88.4265C82.7837 87.8593 83.1666 87.4196 83.6583 87.1076C84.1499 86.7956 84.7266 86.6396 85.3884 86.6396C86.0786 86.6396 86.6459 86.8051 87.0903 87.136C87.5441 87.4575 87.8419 87.9113 87.9837 88.4975L87.7852 88.5258V83.7891H89.2459V94H87.8419ZM85.7146 92.908C86.367 92.908 86.8823 92.6858 87.2604 92.2415C87.6386 91.7876 87.8277 91.1636 87.8277 90.3695C87.8277 89.5942 87.6339 88.9844 87.2463 88.54C86.8681 88.0862 86.3528 87.8593 85.7004 87.8593C85.0575 87.8593 84.547 88.0862 84.1688 88.54C83.8001 88.9844 83.6157 89.6084 83.6157 90.412C83.6157 91.1967 83.8001 91.8113 84.1688 92.2556C84.547 92.6905 85.0623 92.908 85.7146 92.908ZM93.6746 94.1418C93.1924 94.1418 92.767 94.0425 92.3983 93.844C92.0295 93.636 91.7412 93.3524 91.5332 92.9931C91.3346 92.6338 91.2353 92.2225 91.2353 91.7593V86.7673H92.7103V91.4189C92.7103 91.92 92.8332 92.2935 93.079 92.5393C93.3248 92.7851 93.6746 92.908 94.1284 92.908C94.535 92.908 94.8943 92.8135 95.2063 92.6244C95.5277 92.4353 95.7783 92.1753 95.9579 91.8444C96.147 91.504 96.2415 91.1116 96.2415 90.6673L96.4259 92.3975C96.1895 92.9269 95.8255 93.3524 95.3339 93.6738C94.8517 93.9858 94.2986 94.1418 93.6746 94.1418ZM96.2983 94V92.2982H96.2415V86.7673H97.7023V94H96.2983ZM99.7686 94V83.7891H101.243V94H99.7686ZM106.434 94.1418C105.706 94.1418 105.063 93.9811 104.505 93.6596C103.957 93.3382 103.527 92.8938 103.215 92.3265C102.903 91.7593 102.747 91.1069 102.747 90.3695C102.747 89.6225 102.898 88.9702 103.201 88.4124C103.513 87.8451 103.947 87.4055 104.505 87.0935C105.063 86.7815 105.701 86.6255 106.42 86.6255C107.119 86.6255 107.725 86.7767 108.235 87.0793C108.755 87.3724 109.152 87.7836 109.426 88.3131C109.71 88.8425 109.852 89.4713 109.852 90.1993C109.852 90.3127 109.847 90.4215 109.838 90.5255C109.838 90.62 109.828 90.7193 109.809 90.8233H103.739V89.7171H108.774L108.405 90.1567C108.405 89.3815 108.23 88.7905 107.881 88.384C107.531 87.9775 107.044 87.7742 106.42 87.7742C105.749 87.7742 105.214 88.0058 104.817 88.4691C104.43 88.9229 104.236 89.5564 104.236 90.3695C104.236 91.192 104.43 91.8349 104.817 92.2982C105.214 92.7615 105.763 92.9931 106.462 92.9931C106.888 92.9931 107.257 92.908 107.569 92.7378C107.881 92.5582 108.112 92.2982 108.263 91.9578H109.653C109.417 92.6385 109.015 93.1727 108.448 93.5604C107.89 93.948 107.219 94.1418 106.434 94.1418Z" fill="black"/>
</svg>
